<svg version="1.1" id="Layer_1" xmlns="http://www.w3.org/2000/svg" xmlns:xlink="http://www.w3.org/1999/xlink" x="0px" y="0px"
	 width="100%" viewBox="0 0 496 496" enable-background="new 0 0 496 496" xml:space="preserve">
<path fill="#000000" opacity="1.000000" stroke="none" 
	d="
M300.499634,274.074982 
	C286.900269,270.728943 280.267242,263.316254 278.750366,249.744080 
	C278.440216,246.968948 277.339630,245.932159 274.702850,245.937805 
	C258.538666,245.972321 242.374390,245.979095 226.210175,245.957535 
	C223.467804,245.953873 222.540924,247.240677 222.318726,249.921448 
	C221.150803,264.011810 211.111130,274.015198 198.076843,274.297302 
	C184.405457,274.593201 173.555298,264.906921 171.948837,250.553085 
	C171.571747,247.183670 170.435654,246.046692 167.116653,245.813141 
	C160.241058,245.329315 158.614563,243.840988 157.340744,236.828201 
	C155.023376,224.070129 152.947342,211.267990 150.807266,198.478104 
	C150.197876,194.836136 151.122406,191.670883 153.506699,188.723511 
	C162.204391,177.971680 170.800339,167.136688 179.350021,156.266510 
	C181.825272,153.119431 184.879318,151.671616 188.854645,151.789383 
	C194.183228,151.947220 199.518738,151.876755 204.846878,152.044022 
	C208.415970,152.156067 210.366226,151.321014 208.965820,147.164993 
	C208.230789,144.983597 207.909454,142.619766 207.703217,140.311371 
	C207.104568,133.610397 209.736404,130.708191 216.511948,130.670670 
	C228.677887,130.603287 240.844467,130.648453 253.010773,130.649307 
	C275.176788,130.650879 297.342804,130.636307 319.508759,130.668015 
	C326.344879,130.677780 328.268250,132.239456 329.945007,138.873154 
	C330.351776,140.482346 330.675598,142.112656 331.030151,143.734879 
	C332.739075,151.554214 332.738190,151.554398 340.703705,151.832870 
	C347.106415,152.056686 350.400330,154.632797 350.460632,159.463470 
	C350.521088,164.307083 347.271698,166.943237 340.936707,167.347458 
	C339.286285,167.452759 336.805603,166.516510 336.578918,169.301270 
	C336.356842,172.030029 338.289185,172.972900 340.769836,173.133530 
	C342.261627,173.230133 343.770020,173.414139 345.218140,173.772430 
	C348.781555,174.654144 350.428406,177.113937 350.533234,180.689148 
	C350.638214,184.268539 349.050171,186.817917 345.660767,188.002274 
	C344.292908,188.480240 342.761932,188.491348 341.206512,188.730072 
	C340.777161,192.252045 341.709564,194.182465 345.407867,195.366379 
	C351.200714,197.220810 352.522369,204.033585 347.967926,208.198578 
	C345.746643,210.229904 345.389069,211.841904 346.078278,214.630295 
	C347.791290,221.561020 349.158447,228.582870 350.481415,235.602646 
	C351.597168,241.522827 348.562439,246.170639 342.711456,245.637924 
	C333.556610,244.804382 329.428467,247.101822 327.561157,257.132599 
	C325.387177,268.810822 314.087250,274.723785 300.499634,274.074982 
M230.985153,174.784317 
	C234.592239,191.830490 238.276657,208.860977 241.743973,225.935532 
	C242.475006,229.535507 244.029861,230.807922 247.751160,230.729721 
	C258.741791,230.498703 269.741241,230.573502 280.735443,230.694672 
	C284.031494,230.730988 286.740448,229.975662 289.515198,228.012085 
	C298.335480,221.770370 309.919342,221.605499 318.495728,228.054260 
	C323.315491,231.678360 328.048431,230.503662 333.606964,230.256241 
	C332.506836,224.772552 331.401428,219.785294 330.534363,214.756897 
	C329.955139,211.397598 328.370636,210.037506 324.813171,210.107208 
	C314.321411,210.312714 303.823181,210.195038 293.327484,210.189087 
	C288.663147,210.186447 283.986481,210.351379 279.337891,210.069595 
	C274.647064,209.785233 271.710358,206.604553 271.708801,202.421585 
	C271.707245,198.259201 274.681122,195.248154 279.380249,194.775558 
	C280.866089,194.626144 282.376160,194.701767 283.875122,194.701126 
	C296.369995,194.695831 308.864960,194.715591 321.359711,194.675842 
	C323.258301,194.669800 325.668091,195.186493 325.603790,191.981277 
	C325.547058,189.152679 323.852936,188.280258 321.310608,188.369949 
	C319.979736,188.416885 318.645447,188.359528 317.312683,188.359451 
	C303.651611,188.358688 289.990509,188.363373 276.329437,188.359497 
	C267.862061,188.357101 264.667847,186.320862 264.704132,180.969666 
	C264.740631,175.587250 267.989655,173.244110 276.268982,173.153198 
	C289.095673,173.012375 301.924805,173.109512 314.752441,173.030655 
	C316.838135,173.017838 319.090668,173.591965 321.007568,172.013046 
	C321.458588,168.088791 319.361511,167.256256 315.941162,167.275467 
	C299.615051,167.367096 283.287903,167.352509 266.961548,167.277298 
	C260.483276,167.247452 256.943665,163.710022 257.701080,158.350052 
	C258.278687,154.262436 261.367249,151.952576 266.979584,151.875870 
	C275.974213,151.752945 284.971741,151.847275 293.968048,151.836517 
	C300.465179,151.828766 306.962372,151.809662 313.459412,151.772476 
	C315.046875,151.763397 316.545288,151.512787 316.587555,149.432693 
	C316.627686,147.457138 315.661865,146.257553 313.664032,146.104553 
	C312.005859,145.977554 310.336121,145.964493 308.671509,145.964050 
	C284.514740,145.957672 260.357941,145.961975 236.201172,145.963608 
	C232.576569,145.963852 228.951965,145.963654 224.668228,145.963654 
	C226.741455,155.600876 228.718948,164.792984 230.985153,174.784317 
M199.573685,167.313263 
	C195.486053,167.802444 191.008209,165.853958 187.649872,170.303055 
	C181.434402,178.537247 174.850861,186.494003 168.401062,194.550659 
	C166.993683,196.308685 166.123795,198.121140 166.554626,200.505127 
	C168.060333,208.836761 169.388062,217.200790 170.921326,225.527115 
	C171.903244,230.859329 175.861130,232.429306 180.608566,229.528503 
	C181.174377,229.182770 181.670349,228.724854 182.218048,228.347000 
	C191.690552,221.811813 202.809540,221.564987 212.048248,228.269775 
	C216.690201,231.638565 221.287720,230.486130 226.679153,230.283020 
	C223.812881,216.790436 221.110764,204.004318 218.369904,191.226501 
	C217.850311,188.804169 216.076492,188.283524 213.833496,188.329834 
	C209.671921,188.415756 205.504745,188.434418 201.344376,188.319153 
	C196.491531,188.184677 193.890747,185.843613 193.628159,181.625702 
	C193.339218,176.984055 195.487488,174.212067 200.517944,173.591812 
	C204.923386,173.048645 209.396774,173.056442 213.945724,172.815247 
	C214.270355,168.686569 212.722382,166.849045 208.530396,167.275406 
	C205.893463,167.543594 203.206345,167.318420 199.573685,167.313263 
M300.475128,258.340881 
	C305.016724,259.417938 309.127563,258.894012 312.084473,254.860641 
	C314.457062,251.624298 314.548859,247.976334 312.987396,244.454788 
	C311.061096,240.110413 307.369568,238.609589 302.773193,239.005249 
	C298.429199,239.379196 295.727142,241.910355 294.497406,245.843460 
	C292.938019,250.830795 294.714600,254.585571 300.475128,258.340881 
M189.208954,242.821045 
	C186.433640,246.832916 186.532410,250.946411 189.240463,254.834656 
	C191.791336,258.497223 195.664307,259.437378 199.823898,258.546997 
	C203.971252,257.659241 206.290298,254.651764 207.121658,250.636154 
	C208.021698,246.288895 206.222000,242.831696 202.724579,240.385895 
	C198.725037,237.588989 194.205185,238.349564 189.208954,242.821045 
z"/>
<path fill="#000000" opacity="1.000000" stroke="none" 
	d="
M122.722298,314.518860 
	C116.391853,322.205627 108.174301,320.182739 99.935562,320.169922 
	C102.320770,311.388672 102.558243,302.982361 99.829712,293.920044 
	C104.881416,293.669983 109.779648,293.048889 114.602654,294.395844 
	C124.183815,297.071716 127.612648,305.372345 122.722298,314.518860 
M109.351570,307.435913 
	C109.444107,310.787994 108.926643,314.269165 111.255653,317.605164 
	C115.839088,314.290771 116.984024,309.913452 116.296921,305.175232 
	C115.808578,301.807709 115.288185,297.878418 110.628334,297.099609 
	C108.751015,300.231049 109.552177,303.445374 109.351570,307.435913 
z"/>
<path fill="#000000" opacity="1.000000" stroke="none" 
	d="
M314.705109,295.073700 
	C316.502441,296.939819 316.789917,298.819550 314.960541,300.082458 
	C311.239655,302.651123 309.627777,298.194427 306.686798,296.899353 
	C305.728729,299.842529 304.812775,302.389526 305.863007,305.047272 
	C308.083954,306.216400 308.925537,303.689697 310.792419,303.775604 
	C312.471985,305.760773 311.902924,307.938538 311.354492,310.023804 
	C309.138092,311.258759 308.405518,308.253265 306.206879,309.106171 
	C304.493408,311.667725 304.916748,315.106323 306.988647,316.919006 
	C310.466125,319.961395 312.723083,315.579193 315.391602,314.098724 
	C317.730743,318.270569 316.977051,320.177307 312.771271,320.314392 
	C307.330048,320.491699 301.878723,320.357635 296.195526,320.357635 
	C297.980286,311.316254 298.745819,303.011322 295.707916,293.842163 
	C302.134583,293.958923 308.255768,292.681183 314.705109,295.073700 
z"/>
<path fill="#000000" opacity="1.000000" stroke="none" 
	d="
M341.579590,303.394470 
	C346.240326,308.225098 343.542236,314.587952 346.612762,319.817291 
	C340.973969,321.266724 335.945312,318.981232 330.870453,319.981689 
	C328.637360,320.421997 326.229828,318.152893 326.086365,315.691589 
	C325.818695,311.098846 326.700653,306.019012 329.445557,302.748383 
	C332.536194,299.065918 337.372314,300.472260 341.579590,303.394470 
M332.808258,313.156219 
	C332.391846,314.823517 332.647858,316.282501 334.699188,316.116730 
	C335.935455,316.016846 336.562469,314.716003 336.227997,313.492798 
	C335.725739,311.655579 334.667969,311.025299 332.808258,313.156219 
z"/>
<path fill="#000000" opacity="1.000000" stroke="none" 
	d="
M369.663605,301.913391 
	C373.903534,304.564056 373.814026,306.789185 369.250397,308.856262 
	C371.715088,311.666626 375.295624,314.446899 370.767212,318.232178 
	C367.416321,321.033203 360.719818,321.038940 357.766388,318.335388 
	C354.947906,315.755341 356.962097,314.035065 358.978271,312.242615 
	C356.996857,309.645081 354.570221,306.879852 357.362122,303.837067 
	C360.637634,300.267273 364.902802,300.090027 369.663605,301.913391 
z"/>
<path fill="#000000" opacity="1.000000" stroke="none" 
	d="
M383.268494,315.451752 
	C380.718414,310.842957 381.631470,306.945312 384.996552,303.824738 
	C388.419861,300.650177 392.543091,299.725800 396.967346,301.896606 
	C399.295654,303.039062 401.299500,304.566071 401.227600,307.488434 
	C401.151672,310.573334 399.107483,312.201355 396.477325,313.228485 
	C395.420807,313.641052 394.304718,313.901093 393.122742,314.258698 
	C395.632202,316.599426 398.185516,314.572723 401.006073,314.423126 
	C400.525482,318.435028 397.641388,319.452515 394.830841,320.049988 
	C390.267456,321.020020 386.252594,319.893097 383.268494,315.451752 
M393.524445,309.308838 
	C394.072998,307.414612 394.520508,305.541595 392.167450,303.663513 
	C391.510620,306.205444 387.838928,308.544708 393.524445,309.308838 
z"/>
<path fill="#000000" opacity="1.000000" stroke="none" 
	d="
M152.533981,316.952454 
	C150.272217,319.475830 147.649078,320.270782 144.693848,320.327026 
	C140.003113,320.416290 136.743683,318.294739 134.833954,314.054565 
	C133.095657,310.194946 134.109695,306.724762 136.995834,304.036926 
	C140.224442,301.030151 144.141113,299.793427 148.511414,301.635742 
	C151.050720,302.706238 153.376434,304.041962 153.306030,307.316589 
	C153.234940,310.622986 151.280594,312.446686 148.321655,313.396820 
	C147.377502,313.699951 146.399902,313.899048 145.388580,314.158356 
	C147.804031,316.675049 150.343552,314.934204 152.516022,314.051514 
	C153.560822,315.201385 153.145752,315.941315 152.533981,316.952454 
M145.091141,310.190216 
	C147.409668,307.935364 147.177155,305.884552 144.608032,303.611115 
	C142.900101,306.059906 142.327438,308.124115 145.091141,310.190216 
z"/>
<path fill="#000000" opacity="1.000000" stroke="none" 
	d="
M249.576111,313.643127 
	C248.658188,313.778046 248.027130,313.843323 247.153152,313.933746 
	C249.962860,317.070251 252.763626,314.679596 256.262512,314.049438 
	C254.922073,318.179810 252.167374,319.638367 248.929642,320.165619 
	C244.476349,320.890839 240.671967,319.477875 238.176285,315.554260 
	C236.005875,312.141998 236.036713,308.538330 238.443283,305.294586 
	C240.878616,302.012054 244.412659,300.404510 248.456955,300.948486 
	C252.010315,301.426361 255.571426,302.851257 255.992966,307.000122 
	C256.404663,311.051971 253.361694,312.724091 249.576111,313.643127 
M248.772018,307.447845 
	C248.645554,306.223785 249.105209,304.751953 247.078659,304.062561 
	C245.156601,305.689911 244.382339,307.862854 246.254837,309.778229 
	C247.624207,311.178925 248.400970,309.479736 248.772018,307.447845 
z"/>
<path fill="#000000" opacity="1.000000" stroke="none" 
	d="
M209.232574,308.819275 
	C208.001373,306.277222 206.925735,304.080658 205.675659,301.527924 
	C209.733475,300.097321 213.536209,300.634521 217.638397,301.221832 
	C217.345810,305.338135 216.944672,309.314392 219.315125,313.092957 
	C221.393814,309.400330 220.286880,305.420197 220.714890,301.650940 
	C222.775299,300.259125 224.796204,300.524750 227.243744,301.386810 
	C224.348862,306.368713 223.085327,311.814636 221.310257,317.076721 
	C220.492096,319.502136 218.997086,320.429047 216.475540,320.383759 
	C213.880341,320.337158 212.522659,319.058746 211.806625,316.748138 
	C211.021286,314.213898 210.195999,311.692017 209.232574,308.819275 
z"/>
<path fill="#000000" opacity="1.000000" stroke="none" 
	d="
M164.935150,297.544373 
	C167.645340,296.320740 170.029190,295.234772 173.325562,293.733093 
	C173.525909,302.762695 172.153030,311.308441 174.511032,319.778687 
	C170.754196,320.709778 167.376816,320.448395 163.738007,319.963959 
	C165.183228,312.714569 165.808426,305.730347 163.756149,298.762787 
	C163.681183,298.508331 164.308670,298.046967 164.935150,297.544373 
z"/>
<path fill="#000000" opacity="1.000000" stroke="none" 
	d="
M269.692810,303.695923 
	C273.546722,300.361420 278.151276,302.343506 282.140961,301.124359 
	C283.879852,300.592987 285.928192,302.326385 286.182617,304.699432 
	C286.403381,306.758667 285.437164,308.306305 283.477325,308.972260 
	C280.923950,309.839935 278.943390,309.100494 278.033081,305.994659 
	C273.188446,310.431030 276.115631,315.177704 276.672424,319.744598 
	C273.245667,320.738159 269.990479,320.455292 266.321228,319.981995 
	C267.460541,315.176086 268.905334,310.509827 266.188568,306.171204 
	C266.673706,304.364410 268.315735,304.527069 269.692810,303.695923 
z"/>
<path fill="#000000" opacity="1.000000" stroke="none" 
	d="
M191.971344,301.020538 
	C194.895676,301.529388 194.321472,303.792572 194.218613,305.699158 
	C193.968826,310.328796 193.710648,314.945953 195.443024,319.591248 
	C191.822678,320.929504 188.461914,320.361603 184.659164,319.987946 
	C185.733124,315.133179 186.999283,310.466858 184.406479,305.779175 
	C186.890488,304.300903 189.243423,302.900604 191.796722,301.249512 
	C191.997101,300.998657 191.971344,301.020538 191.971344,301.020538 
z"/>
<path fill="#000000" opacity="1.000000" stroke="none" 
	d="
M192.008087,300.985870 
	C189.900009,301.508392 187.756409,303.148865 185.709869,300.794891 
	C184.750504,299.691467 184.509613,298.411560 185.111771,297.147919 
	C186.201202,294.861725 188.138763,293.367065 190.616043,294.197784 
	C193.799316,295.265228 193.284637,297.823669 192.080414,300.652191 
	C191.971344,301.020538 191.997101,300.998657 192.008087,300.985870 
z"/>
</svg>